<?xml version="1.0" standalone="no"?>
<!DOCTYPE svg PUBLIC "-//W3C//DTD SVG 20010904//EN"
 "http://www.w3.org/TR/2001/REC-SVG-20010904/DTD/svg10.dtd">
<svg version="1.0" xmlns="http://www.w3.org/2000/svg"
 width="512.000000pt" height="512.000000pt" viewBox="0 0 512.000000 512.000000"
 preserveAspectRatio="xMidYMid meet">
<metadata>
Created by potrace 1.11, written by Peter Selinger 2001-2013
</metadata>
<g transform="translate(0.000000,512.000000) scale(0.100000,-0.100000)"
fill="#000000" stroke="none">
<path d="M3495 4721 c-35 -16 -211 -153 -304 -236 -335 -299 -594 -591 -831
-937 l-73 -107 -59 96 c-33 52 -66 102 -74 110 -7 8 -14 18 -14 23 0 4 -37 44
-81 89 -163 162 -352 244 -544 236 -139 -6 -288 -62 -412 -157 -50 -38 -52
-39 -155 -43 -56 -3 -131 -7 -165 -10 -35 -3 -93 -7 -130 -10 -105 -9 -212
-21 -268 -31 -10 -2 -37 -6 -60 -10 -58 -8 -202 -42 -257 -60 -79 -26 -86 -58
-20 -88 37 -16 53 -16 152 4 30 5 76 13 103 15 26 3 80 10 120 15 115 17 386
6 487 -19 115 -29 251 -98 321 -164 55 -50 119 -128 119 -142 0 -4 8 -19 19
-33 28 -41 76 -169 99 -263 22 -89 27 -114 42 -219 35 -228 131 -446 291 -654
4 -6 43 -52 87 -101 232 -265 547 -477 906 -611 108 -40 136 -54 241 -123 68
-45 279 -246 342 -326 18 -22 52 -65 76 -95 24 -30 89 -116 145 -191 189 -254
265 -317 315 -261 15 16 14 23 -9 92 -42 124 -237 512 -494 980 -146 266 -163
298 -221 398 -27 47 -49 86 -49 87 0 2 -29 54 -65 116 -35 62 -63 114 -62 115
1 2 50 4 107 5 148 2 274 18 401 50 281 70 553 218 778 423 113 103 275 286
263 297 -25 22 -405 143 -609 194 -150 37 -154 38 -221 50 -23 4 -45 12 -48
16 -8 14 201 -4 356 -31 30 -5 71 -12 90 -15 33 -5 112 -20 170 -31 14 -3 66
-14 115 -25 50 -11 101 -22 115 -25 14 -3 46 -11 71 -19 l46 -13 60 91 c63 97
153 257 153 274 0 5 -6 10 -12 10 -15 1 -153 20 -198 28 -8 1 -46 6 -83 10
-37 3 -76 8 -85 10 -18 3 -195 16 -292 20 -30 2 -122 4 -204 4 -82 1 -146 4
-142 8 7 7 11 8 91 19 174 23 310 29 652 29 l342 0 29 70 c36 86 92 250 92
269 0 10 -10 13 -37 11 -21 -2 -85 -6 -143 -9 -109 -6 -184 -13 -260 -22 -25
-3 -61 -8 -80 -10 -111 -11 -363 -52 -512 -83 -49 -10 -88 -15 -88 -11 0 14
363 129 485 154 11 3 61 14 110 26 50 12 99 24 110 26 11 2 45 9 75 16 30 6
62 12 70 13 65 10 314 55 317 58 9 10 18 102 18 195 0 99 -1 105 -25 124 -21
17 -35 19 -85 15 -145 -12 -716 -213 -1040 -367 -473 -225 -685 -343 -1045
-586 -111 -75 -319 -228 -408 -301 -70 -56 -104 -58 -43 -3 24 22 64 57 89 78
25 20 50 42 56 47 6 6 47 38 91 73 44 35 87 69 96 76 181 149 661 464 929 609
l65 35 -2 134 c-2 155 -27 289 -72 382 -60 126 -130 162 -226 117z"/>
</g>
</svg>
