<svg xmlns="http://www.w3.org/2000/svg" xmlns:xlink="http://www.w3.org/1999/xlink" viewBox="0 0 309.27 88.84" width="392" height="107">
  <defs>
    <style>
      .cls-1 {
        fill: #fff;
      }

      .cls-2 {
        fill: url(#New_Gradient_Swatch_3);
      }

      .cls-3 {
        fill: url(#New_Gradient_Swatch_3-2);
      }

      .cls-4 {
        fill: url(#New_Gradient_Swatch_3-3);
      }
    </style>
    <linearGradient id="New_Gradient_Swatch_3" data-name="New Gradient Swatch 3" x1="274.73" y1="20.61" x2="274.74" y2="20.61" gradientUnits="userSpaceOnUse">
      <stop offset="0" stop-color="#791842"/>
      <stop offset="0.15" stop-color="#6e1e57"/>
      <stop offset="0.25" stop-color="#852470"/>
      <stop offset="0.44" stop-color="#bb387d"/>
      <stop offset="0.55" stop-color="#ec4e6b"/>
      <stop offset="0.7" stop-color="#f37146"/>
      <stop offset="0.81" stop-color="#f37146"/>
      <stop offset="0.97" stop-color="#fab081"/>
    </linearGradient>
    <linearGradient id="New_Gradient_Swatch_3-2" x1="243.37" y1="27.93" x2="309.27" y2="27.93" xlink:href="#New_Gradient_Swatch_3"/>
    <linearGradient id="New_Gradient_Swatch_3-3" x1="274.64" y1="20.77" x2="274.9" y2="20.77" xlink:href="#New_Gradient_Swatch_3"/>
  </defs>
  <title>logo</title>
  <g id="Layer_2" data-name="Layer 2">
    <g id="Layer_1-2" data-name="Layer 1">
      <g>
        <g>
          <path class="cls-1" d="M21.56,58.31A12.35,12.35,0,0,0,8.92,45.56H0v42.6H8v-17h.91A12.37,12.37,0,0,0,21.56,58.31ZM8.92,63.68H8V53h.91c2.4,0,4.35,1.94,4.35,5.32S11.32,63.68,8.92,63.68Z"/>
          <path class="cls-1" d="M36.71,44.93,15.84,87.47v.69H24l3.94-8.47H45.69l4,8.47h8.12v-.69L36.94,44.93ZM31.34,72.26l5.37-11.44,5.43,11.44Z"/>
          <path class="cls-1" d="M138.84,44.93,121.13,81v-.3H112V45.55h-8V88.16h22.15L130,79.69h17.79l4,8.47h8.12v-.69L139.07,44.93Zm-5.38,27.33,5.38-11.44,5.43,11.44Z"/>
          <path class="cls-1" d="M218.92,44.93,198.86,85.81l-5.62-18.13a11.65,11.65,0,0,0,5-9.83c0-7.32-5.67-12.29-12.64-12.29h-9v42.6h8V70H186l5.14,18.13h15l3.94-8.47H227.9l4,8.47H240v-.69L219.15,44.93ZM185.58,63h-1V53h1c2.4,0,4.34,1.77,4.34,4.86C189.92,61.22,188,63,185.58,63Zm28,9.26,5.38-11.44,5.43,11.44Z"/>
          <polygon class="cls-1" points="252.07 45.55 247.38 54.3 242.46 45.55 233.77 45.55 243.15 61.74 243.15 88.16 251.16 88.16 251.16 62.14 260.76 45.55 252.07 45.55"/>
          <path class="cls-1" d="M77.05,44.87c-12.29,0-21.61,9.61-21.61,21.9s9.32,22.07,21.61,22.07,21.61-9.72,21.61-22.07S89.34,44.87,77.05,44.87Zm0,36.54c-7.72,0-13.32-6.41-13.32-14.64S69.33,52.3,77.05,52.3s13.32,6.35,13.32,14.47S84.77,81.41,77.05,81.41Z"/>
        </g>
        <g>
          <path class="cls-2" d="M274.73,20.61Z"/>
          <path class="cls-3" d="M308.94,8.37a9.44,9.44,0,0,0,.23-3.73c-.15-.53-.8-.91-2.1-.54h0l-.68.19-.31.09-.4.12-.54.17-.22.06-.68.22-.11,0-.79.26h0a93.15,93.15,0,0,0-11.16,4.59,86.75,86.75,0,0,0-17.25,11h0l0,0c-.11.09-.27-.15-.22-.2s.08-.08.08-.09h0c.54-.49,1.14-1,1.81-1.58A94,94,0,0,1,292.23,8.37c.19-5.62-1.45-9.93-4.41-7.83a63.15,63.15,0,0,0-15,16.21c-.54-.89-.95-1.56-1.2-1.94C269.17,11,265.93,9.54,263,9.54a10.08,10.08,0,0,0-6.05,2.58s-8.5.17-12.84,1.64a1.67,1.67,0,0,0-.63.34c-.5.5,1,1,1.13.92l.19,0c15.21-3.11,17.13,4,18.13,10.79S271.09,40,279.55,42.87c7.68,2.65,12.11,14.91,14.27,12.74.61-.61-4.41-10-9.85-19.68h0l-1.9-3.36c.41,0,.79,0,1.13,0,8.55,0,14.78-4.47,19-9.91a67.89,67.89,0,0,0-10.9-3.18c-2.92-.63,4.26-.2,11.89,1.84a36.5,36.5,0,0,0,2.8-4.74,69.58,69.58,0,0,0-12.54-1c-3.24,0,4.74-1.19,13.33-.66a36.39,36.39,0,0,0,1.66-4.57,78.18,78.18,0,0,0-13.8,1.71C291.12,12.8,299.49,9.72,308.94,8.37Z"/>
          <path class="cls-4" d="M274.65,20.7c0,.05.11.29.22.2l0,0a1.43,1.43,0,0,0-.17-.27S274.71,20.64,274.65,20.7Z"/>
        </g>
      </g>
    </g>
  </g>
</svg>
